# xmcd
#
# Track frame offsets:
#	150
#	21448
#	65395
#	91087
#	128055
#	160210
#	210370
#	257950
#	275597
#
# Disc length: 4383 seconds
#
# Revision: 2
# Processed by: cddbd v1.4PL0 Copyright (c) Steve Scherf et al.
# Submitted via: audiograbber 1.82.02
#
DISCID=79111d09
DTITLE=Mike and The Mellotones - Wild Live Action
DYEAR=2002
DGENRE=Blues
TTITLE0=No Cavalry Behind
TTITLE1=Don't Raise Their Kids No More
TTITLE2=Anything At All
TTITLE3=Jungle
TTITLE4=Wedding From Hell
TTITLE5=Money, Politics and Religion
TTITLE6=Let That Man Thing Be Strong
TTITLE7=Showdown
TTITLE8=The Devil Is A Woman
EXTD=
EXTT0=
EXTT1=
EXTT2=
EXTT3=
EXTT4=
EXTT5=
EXTT6=
EXTT7=
EXTT8=
PLAYORDER=
